# xmcd
#
# Track frame offsets: 
#        150
#        14382
#        27912
#        51825
#        73350
#        87230
#        100625
#        116625
#        129375
#        136652
#        150907
#        159457
#        171457
#        180117
#
# Disc length: 2571 seconds
#
# Revision: 0
# Processed by: cddbd v1.5.1PL0 Copyright (c) Steve Scherf et al.
# Submitted via: ExactAudioCopy v0.95a5
#
DISCID=aa0a090e
DTITLE=Alec Seward - Late One Saturday Evening
DYEAR=1900
DGENRE=Blues
TTITLE0=What Has Annie Got
TTITLE1=Risin' Sun Shine On
TTITLE2=Her Ways Are So Sweet
TTITLE3=C.C. Rider
TTITLE4=Goin' Down Slow
TTITLE5=Rock Me Darlin'
TTITLE6=Late One Saturday Evening
TTITLE7=Blues All Around My Head
TTITLE8=Feel So Good
TTITLE9=Blues All Around My Head
TTITLE10=Trouble In Mind
TTITLE11=Creepin' Blues
TTITLE12=Cousin John
TTITLE13=I Wish I'd Listened
EXTD=
EXTT0=
EXTT1=
EXTT2=
EXTT3=
EXTT4=
EXTT5=
EXTT6=
EXTT7=
EXTT8=
EXTT9=
EXTT10=
EXTT11=
EXTT12=
EXTT13=
PLAYORDER=
